<svg version="1.1" xmlns="http://www.w3.org/2000/svg" xmlns:xlink="http://www.w3.org/1999/xlink" width="111.00104" height="52.72377" viewBox="0,0,111.00104,52.72377"><defs><linearGradient x1="184.50059" y1="180.0002" x2="295.50041" y2="180.0002" gradientUnits="userSpaceOnUse" id="color-1"><stop offset="0.012" stop-color="#a7a9ac"/><stop offset="1" stop-color="#414042"/></linearGradient><linearGradient x1="188.66381" y1="179.99933" x2="291.33609" y2="179.99933" gradientUnits="userSpaceOnUse" id="color-2"><stop offset="0" stop-color="#d1d2d3"/><stop offset="1" stop-color="#a4a5a8"/></linearGradient></defs><g transform="translate(-184.49948,-153.63811)"><g data-paper-data="{&quot;isPaintingLayer&quot;:true}" fill-rule="nonzero" stroke="none" stroke-width="1" stroke-linecap="butt" stroke-linejoin="miter" stroke-miterlimit="10" stroke-dasharray="" stroke-dashoffset="0" style="mix-blend-mode: normal"><path d="M295.50052,198.06353c0,4.58266 -4.70102,8.29836 -10.49618,8.29836h-90.00989c-5.79638,0 -10.49497,-3.71667 -10.49497,-8.29836v-36.12801c0,-4.58266 4.69859,-8.2974 10.49497,-8.2974h90.00866c5.79883,0 10.4962,3.71473 10.4962,8.2974v36.12801z" data-paper-data="{&quot;index&quot;:null}" fill="url(#color-1)"/><path d="M291.33499,161.93553v36.12705c0,2.76002 -2.83842,5.00506 -6.33187,5.00506h-90.00867c-3.48979,0 -6.33064,-2.24504 -6.33064,-5.00506v-36.12801c0,-2.76002 2.84086,-5.00506 6.33064,-5.00506h90.00867c3.49345,0 6.33187,2.246 6.33187,5.00602z" data-paper-data="{&quot;index&quot;:null}" fill="url(#color-2)"/><text transform="translate(205.77067,188.52962) scale(0.7393,0.7393)" font-size="40" xml:space="preserve" data-paper-data="{&quot;index&quot;:null}" fill="#9966ff" fill-rule="nonzero" stroke="none" stroke-width="1" stroke-linecap="butt" stroke-linejoin="miter" stroke-miterlimit="10" stroke-dasharray="" stroke-dashoffset="0" font-family="Sans Serif" font-weight="normal" text-anchor="start" style="mix-blend-mode: normal"><tspan x="0" dy="0">Start</tspan></text></g></g></svg>